<?xml version="1.0" standalone="no"?>
<!DOCTYPE svg PUBLIC "-//W3C//DTD SVG 20010904//EN"
 "http://www.w3.org/TR/2001/REC-SVG-20010904/DTD/svg10.dtd">
<svg version="1.0" xmlns="http://www.w3.org/2000/svg"
 width="197.000000pt" height="186.000000pt" viewBox="0 0 197.000000 186.000000"
 preserveAspectRatio="xMidYMid meet">

<g transform="translate(0.000000,186.000000) scale(0.100000,-0.100000)"
fill="#000000" stroke="none">
<path d="M822 1655 c-35 -8 -69 -19 -76 -24 -9 -7 -19 -6 -33 4 -11 8 -38 17
-59 20 -39 7 -40 6 -149 -104 -92 -93 -123 -132 -192 -246 -86 -143 -175 -332
-218 -460 -34 -102 -42 -218 -21 -308 22 -92 45 -134 105 -190 93 -87 217
-122 344 -98 118 22 141 52 88 118 -54 68 -73 131 -91 303 -10 104 -4 290 10
290 4 0 10 -12 13 -27 4 -16 15 -43 27 -61 20 -33 78 -75 91 -66 5 2 38 -2 74
-11 37 -8 78 -15 93 -15 l27 -1 -35 -30 c-19 -16 -59 -45 -88 -64 -68 -45 -80
-71 -59 -127 22 -59 24 -107 4 -145 -23 -43 -22 -51 9 -65 23 -11 25 -16 20
-51 -4 -22 -22 -81 -41 -132 -49 -130 -47 -138 28 -138 57 0 79 30 123 168
l36 115 48 0 c26 0 61 3 78 6 29 6 30 4 46 -47 9 -30 22 -94 28 -143 11 -73
16 -90 34 -98 26 -12 100 6 107 26 5 12 -24 175 -48 267 -6 23 -2 27 35 38 36
10 40 15 34 34 -3 12 -12 32 -20 44 -12 19 -12 37 -3 111 7 49 9 99 6 113 -5
18 -29 36 -94 69 -47 25 -88 50 -90 56 -4 12 84 41 94 31 7 -8 73 26 134 69
27 19 53 34 58 34 5 0 20 14 32 31 18 26 23 29 31 16 11 -20 16 -470 5 -519
-5 -22 -30 -64 -62 -104 -30 -37 -55 -70 -55 -74 0 -16 41 -42 86 -56 57 -17
173 -18 246 -3 65 14 175 68 222 110 80 70 122 215 104 354 -11 83 -76 282
-123 375 -33 65 -127 213 -193 303 -19 27 -36 61 -37 75 -2 15 -19 62 -38 104
-29 62 -42 81 -70 94 -33 16 -35 15 -96 -15 l-62 -32 -30 22 c-81 57 -304 85
-437 54z m246 -15 c57 -6 103 -19 149 -41 l66 -32 -23 -17 -24 -18 34 -74 c18
-40 40 -83 48 -95 20 -32 42 -29 42 5 0 88 45 141 93 109 37 -24 107 -110 191
-235 178 -263 273 -535 246 -706 -24 -152 -117 -249 -289 -300 -105 -31 -321
-10 -321 32 0 7 20 38 45 68 24 31 50 74 57 97 15 48 17 331 4 500 -7 97 -10
106 -24 95 -14 -11 -15 -10 -7 7 15 36 17 73 5 80 -6 4 -14 4 -18 0 -4 -4 -1
-10 6 -12 6 -3 12 -12 12 -20 0 -9 -6 -13 -14 -10 -10 4 -26 -18 -52 -73 -34
-70 -45 -83 -100 -119 -71 -47 -78 -49 -69 -20 l7 21 -21 -21 c-11 -11 -47
-28 -79 -37 -35 -10 -64 -25 -71 -36 -14 -23 -7 -36 11 -20 10 8 20 6 38 -8
21 -16 23 -22 13 -38 -9 -15 -7 -27 9 -59 l21 -41 -26 -34 c-19 -24 -24 -41
-20 -57 4 -17 3 -22 -5 -17 -8 5 -10 2 -6 -8 3 -9 10 -13 15 -10 5 3 7 -1 4
-8 -3 -7 7 -21 22 -30 l28 -17 -45 -20 c-61 -28 -79 -26 -117 11 l-33 32 -31
-33 -30 -34 -35 34 c-19 18 -34 38 -34 44 0 7 25 62 55 123 30 62 52 118 49
125 -3 8 2 19 10 26 13 11 17 9 27 -12 9 -19 8 -31 -6 -57 -9 -17 -14 -34 -11
-37 8 -8 36 61 36 87 0 11 4 20 9 20 5 0 9 -12 9 -27 0 -16 7 -44 16 -63 16
-33 17 -33 10 -5 -4 17 -7 43 -7 60 0 31 -21 62 -32 45 -12 -20 -25 -10 -19
15 6 23 4 25 -32 25 -22 0 -70 7 -109 16 -38 9 -81 17 -93 19 -51 7 -96 81
-107 178 -8 66 -20 81 -29 34 -15 -81 -27 -278 -21 -342 16 -173 39 -260 91
-335 19 -27 34 -54 34 -60 0 -20 -74 -42 -155 -47 -64 -4 -92 -1 -137 15 -110
39 -186 111 -225 214 -21 56 -23 234 -4 303 48 172 260 583 341 660 l31 30 28
-30 27 -31 42 47 c63 70 171 140 250 160 77 21 134 23 250 9z m-435 -28 c-35
-34 -58 -46 -29 -14 17 18 34 32 38 32 5 0 1 -8 -9 -18z m793 -11 c-3 -5 -16
-11 -28 -14 -22 -6 -22 -5 -4 8 22 17 40 20 32 6z m-875 -75 c-25 -26 -32 -41
-28 -57 6 -21 5 -21 -11 -6 -15 16 -13 20 23 57 21 22 41 40 44 40 3 0 -10
-15 -28 -34z m749 10 c0 -2 -8 -10 -17 -17 -16 -13 -17 -12 -4 4 13 16 21 21
21 13z m0 -71 c0 -5 -5 -3 -10 5 -5 8 -10 20 -10 25 0 6 5 3 10 -5 5 -8 10
-19 10 -25z m39 -90 c0 -5 -8 6 -19 25 -11 19 -19 40 -19 45 0 6 8 -6 19 -25
11 -19 19 -39 19 -45z m-189 -900 c-7 -8 -17 -15 -23 -15 -5 0 -2 9 8 20 21
23 35 19 15 -5z m3 -63 c-7 -16 -16 -8 -20 19 -2 16 -1 18 11 7 7 -7 11 -19 9
-26z m-78 -2 c-3 -5 -11 -10 -16 -10 -6 0 -7 5 -4 10 3 6 11 10 16 10 6 0 7
-4 4 -10z m-339 -24 c15 -8 31 -13 36 -10 4 3 8 1 8 -3 0 -5 12 -9 27 -8 14 0
28 -6 31 -14 4 -11 -2 -12 -29 -6 -19 4 -52 10 -74 14 -27 4 -41 12 -43 24 -4
21 7 22 44 3z m454 4 c0 -5 -8 -10 -17 -10 -15 0 -16 2 -3 10 19 12 20 12 20
0z m-122 -23 c60 5 7 -13 -58 -20 -30 -3 -46 -3 -36 0 15 4 16 7 5 14 -9 7 -5
8 14 3 19 -4 27 -2 28 7 0 8 3 9 5 4 2 -6 21 -10 42 -8z m-238 -54 c0 -23 -23
-63 -37 -63 -8 0 -12 4 -9 9 4 5 -7 12 -24 16 -31 7 -34 14 -24 51 5 18 9 19
50 10 24 -6 44 -16 44 -23z m298 -10 c11 -48 7 -68 -6 -46 -4 7 -18 10 -30 6
-12 -3 -19 -9 -16 -14 3 -5 -1 -9 -9 -9 -12 0 -37 59 -37 88 0 6 17 13 38 15
20 2 40 4 44 5 3 1 11 -19 16 -45z m-401 -249 c-3 -3 -12 -4 -19 -1 -8 3 -5 6
6 6 11 1 17 -2 13 -5z"/>
<path d="M621 1127 c-35 -57 -26 -76 15 -32 14 16 33 25 51 24 26 0 27 -1 6
-9 -39 -16 -61 -90 -27 -90 10 0 14 6 10 15 -9 24 4 45 29 45 17 0 27 -11 43
-47 23 -54 29 -30 8 30 -13 34 -12 36 2 25 13 -11 14 -10 5 7 -18 34 -49 56
-85 61 -32 6 -37 3 -57 -29z"/>
<path d="M992 1137 c-29 -31 -28 -41 2 -22 l25 16 -19 -37 c-11 -20 -17 -41
-13 -47 3 -5 8 -5 12 1 8 14 25 3 35 -23 6 -15 10 -17 14 -6 2 8 -5 23 -18 33
-18 15 -20 21 -10 33 31 37 70 6 70 -57 1 -28 2 -30 11 -15 14 24 4 74 -19
101 -17 20 -17 20 8 5 14 -9 29 -26 35 -37 5 -12 14 -21 19 -19 21 7 16 27
-15 61 -26 31 -37 36 -73 36 -31 0 -48 -6 -64 -23z"/>
<path d="M1040 1082 c0 -4 9 -15 20 -25 11 -9 20 -13 20 -9 0 4 -9 15 -20 25
-11 9 -20 13 -20 9z"/>
<path d="M711 1044 c0 -11 3 -14 6 -6 3 7 2 16 -1 19 -3 4 -6 -2 -5 -13z"/>
<path d="M840 604 c-6 -14 -9 -35 -9 -47 1 -18 2 -18 6 -4 3 12 11 16 23 12
13 -4 19 1 23 22 5 26 -5 42 -26 43 -4 0 -12 -12 -17 -26z"/>
</g>
</svg>
